# xmcd
# 
# Track frame offsets:
#     150
#     14380
#     25160
#     39625
#     54433
#     70245
#     85786
#     101074
#     115683
#     131795
#     147311
#     160090
#     175062
#     187181
#     202530
#     216857
#     229732
#     244187
#     257650
#     271710
#     285342
#     298279
#     311503
#     334335
# 
# Disc length: 4644
# 
# Revision: 2
# Processed by: cddbd v1.5.2PL0 Copyright (c) Steve Scherf et al.
# Submitted via: fre:ac v1.0.31
# 
DISCID=5c122218
DTITLE=Motown - Complete Motown Singles Volume12A - Disc 68
DYEAR=2013
DGENRE=R&B
TTITLE0=Rare Earth - What I'd Say (mono)
TTITLE1=Rare Earth - Nice To Be With You (mono)
TTITLE2=Rare Earth - What I'd  Say (stereo promo version)
TTITLE3=Eddie Kendricks - Let Me Run Into Your Lonely Heart (mono)
TTITLE4=Eddie Kendricks - Eddie's Love (mono)
TTITLE5=Eddie Kendricks - Eddie's Love (stereo promo version)
TTITLE6=Thelma Houston - Me And Bobby McGee (mono)
TTITLE7=Thelma Houson - No One's Gonna Be A Fool Forever (mono)
TTITLE8=G.C. Cameron - What It Is, What It Is (mono)
TTITLE9=G.C. Cameron - You Are That Special One (mono)
TTITLE10=The Jackson 5 - Little Bitty Pretty One (mono)
TTITLE11=The Jackson 5 - If I Have To Move A Mountain (mono)
TTITLE12=The Supremes - Automatically Sunshine (mono)
TTITLE13=The Supremes - Precious Little Things (mono)
TTITLE14=The Courtship - It's The Same Old Love (mono)
TTITLE15=The Courtship - Last Row, First Balcony (mono)
TTITLE16=The Courtship - It's The Same Old Love (stereo promo version)
TTITLE17=Xit - Nihaa Shil Hozho (I Am Happy About You) (mono)
TTITLE18=Xit - End (mono)
TTITLE19=Xit - Nihaa Shil Hozho (I Am Happy About You) (stereo promo version)
TTITLE20=The Four Tops - I Can't Quit Your Love (mono)
TTITLE21=The Four Tops - Happy (Is A Bumpy Road) (mono)
TTITLE22=Vincent DiMirco - I Can Make It Alone (mono)
TTITLE23=Vincent DiMirco - Come Clean (mono)
EXTD=
EXTT0=
EXTT1=
EXTT2=
EXTT3=
EXTT4=
EXTT5=
EXTT6=
EXTT7=
EXTT8=
EXTT9=
EXTT10=
EXTT11=
EXTT12=
EXTT13=
EXTT14=
EXTT15=
EXTT16=
EXTT17=
EXTT18=
EXTT19=
EXTT20=
EXTT21=
EXTT22=
EXTT23=
PLAYORDER=
